<mxfile host="app.diagrams.net" agent="Mozilla/5.0 (Windows NT 10.0; Win64; x64) AppleWebKit/537.36 (KHTML, like Gecko) Chrome/133.0.0.0 Safari/537.36" version="26.0.16">
  <diagram name="Page-1" id="c7558073-3199-34d8-9f00-42111426c3f3">
    <mxGraphModel dx="1235" dy="789" grid="1" gridSize="10" guides="1" tooltips="1" connect="1" arrows="1" fold="1" page="1" pageScale="1" pageWidth="827" pageHeight="1169" background="none" math="0" shadow="0">
      <root>
        <mxCell id="0" />
        <mxCell id="1" parent="0" />
        <mxCell id="OkTDxyFa1funlo1SMz6G-6" style="edgeStyle=orthogonalEdgeStyle;rounded=0;orthogonalLoop=1;jettySize=auto;html=1;exitX=1;exitY=0.5;exitDx=0;exitDy=0;entryX=0;entryY=0.5;entryDx=0;entryDy=0;" edge="1" parent="1" source="gBuzXzj2Km16ELcQwFcT-96" target="OkTDxyFa1funlo1SMz6G-1">
          <mxGeometry relative="1" as="geometry" />
        </mxCell>
        <mxCell id="gBuzXzj2Km16ELcQwFcT-96" value="User" style="rounded=0;whiteSpace=wrap;html=1;" parent="1" vertex="1">
          <mxGeometry x="60" y="80" width="120" height="60" as="geometry" />
        </mxCell>
        <mxCell id="gBuzXzj2Km16ELcQwFcT-99" value="Record Book" style="html=1;dashed=0;whiteSpace=wrap;shape=partialRectangle;right=0;left=0;" parent="1" vertex="1">
          <mxGeometry x="360" y="80" width="140" height="60" as="geometry" />
        </mxCell>
        <mxCell id="OkTDxyFa1funlo1SMz6G-8" style="edgeStyle=orthogonalEdgeStyle;rounded=0;orthogonalLoop=1;jettySize=auto;html=1;exitX=0.5;exitY=0;exitDx=0;exitDy=0;entryX=0.5;entryY=1;entryDx=0;entryDy=0;" edge="1" parent="1" source="gBuzXzj2Km16ELcQwFcT-100" target="OkTDxyFa1funlo1SMz6G-2">
          <mxGeometry relative="1" as="geometry" />
        </mxCell>
        <mxCell id="gBuzXzj2Km16ELcQwFcT-100" value="Items&amp;nbsp;&lt;div&gt;management&lt;/div&gt;" style="rounded=0;whiteSpace=wrap;html=1;" parent="1" vertex="1">
          <mxGeometry x="370" y="270" width="120" height="60" as="geometry" />
        </mxCell>
        <mxCell id="OkTDxyFa1funlo1SMz6G-10" style="edgeStyle=orthogonalEdgeStyle;rounded=0;orthogonalLoop=1;jettySize=auto;html=1;exitX=0;exitY=0.5;exitDx=0;exitDy=0;" edge="1" parent="1" source="gBuzXzj2Km16ELcQwFcT-101" target="OkTDxyFa1funlo1SMz6G-5">
          <mxGeometry relative="1" as="geometry" />
        </mxCell>
        <mxCell id="gBuzXzj2Km16ELcQwFcT-101" value="transaction&amp;nbsp;&lt;div&gt;management&lt;/div&gt;" style="rounded=0;whiteSpace=wrap;html=1;" parent="1" vertex="1">
          <mxGeometry x="680" y="80" width="120" height="60" as="geometry" />
        </mxCell>
        <mxCell id="gBuzXzj2Km16ELcQwFcT-105" value="&lt;font style=&quot;font-size: 20px;&quot;&gt;Level - 0 DFD&lt;/font&gt;" style="text;html=1;align=center;verticalAlign=middle;whiteSpace=wrap;rounded=0;" parent="1" vertex="1">
          <mxGeometry x="40" y="10" width="180" height="30" as="geometry" />
        </mxCell>
        <mxCell id="gBuzXzj2Km16ELcQwFcT-106" value="&lt;font style=&quot;font-size: 20px;&quot;&gt;Level - 1 DFD&lt;/font&gt;" style="text;html=1;align=center;verticalAlign=middle;whiteSpace=wrap;rounded=0;" parent="1" vertex="1">
          <mxGeometry x="40" y="360" width="180" height="30" as="geometry" />
        </mxCell>
        <mxCell id="gBuzXzj2Km16ELcQwFcT-110" style="edgeStyle=orthogonalEdgeStyle;rounded=0;orthogonalLoop=1;jettySize=auto;html=1;exitX=1;exitY=0.5;exitDx=0;exitDy=0;entryX=0;entryY=0.5;entryDx=0;entryDy=0;" parent="1" source="gBuzXzj2Km16ELcQwFcT-107" target="gBuzXzj2Km16ELcQwFcT-108" edge="1">
          <mxGeometry relative="1" as="geometry" />
        </mxCell>
        <mxCell id="gBuzXzj2Km16ELcQwFcT-115" style="edgeStyle=orthogonalEdgeStyle;rounded=0;orthogonalLoop=1;jettySize=auto;html=1;entryX=0;entryY=0.5;entryDx=0;entryDy=0;exitX=0.468;exitY=1.011;exitDx=0;exitDy=0;exitPerimeter=0;" parent="1" source="gBuzXzj2Km16ELcQwFcT-107" target="gBuzXzj2Km16ELcQwFcT-113" edge="1">
          <mxGeometry relative="1" as="geometry">
            <mxPoint x="215.5" y="500" as="sourcePoint" />
          </mxGeometry>
        </mxCell>
        <mxCell id="gBuzXzj2Km16ELcQwFcT-107" value="User" style="rounded=0;whiteSpace=wrap;html=1;" parent="1" vertex="1">
          <mxGeometry x="155.5" y="430" width="120" height="60" as="geometry" />
        </mxCell>
        <mxCell id="gBuzXzj2Km16ELcQwFcT-111" style="edgeStyle=orthogonalEdgeStyle;rounded=0;orthogonalLoop=1;jettySize=auto;html=1;exitX=1;exitY=0.5;exitDx=0;exitDy=0;entryX=0;entryY=0.5;entryDx=0;entryDy=0;" parent="1" source="gBuzXzj2Km16ELcQwFcT-108" target="gBuzXzj2Km16ELcQwFcT-109" edge="1">
          <mxGeometry relative="1" as="geometry" />
        </mxCell>
        <mxCell id="gBuzXzj2Km16ELcQwFcT-108" value="register&amp;nbsp;" style="ellipse;whiteSpace=wrap;html=1;aspect=fixed;" parent="1" vertex="1">
          <mxGeometry x="355.5" y="420" width="80" height="80" as="geometry" />
        </mxCell>
        <mxCell id="gBuzXzj2Km16ELcQwFcT-109" value="user_data" style="html=1;dashed=0;whiteSpace=wrap;shape=partialRectangle;right=0;left=0;" parent="1" vertex="1">
          <mxGeometry x="515.5" y="430" width="140" height="60" as="geometry" />
        </mxCell>
        <mxCell id="gBuzXzj2Km16ELcQwFcT-124" style="edgeStyle=orthogonalEdgeStyle;rounded=0;orthogonalLoop=1;jettySize=auto;html=1;exitX=1;exitY=0.5;exitDx=0;exitDy=0;entryX=0;entryY=0.5;entryDx=0;entryDy=0;" parent="1" source="gBuzXzj2Km16ELcQwFcT-113" target="gBuzXzj2Km16ELcQwFcT-114" edge="1">
          <mxGeometry relative="1" as="geometry" />
        </mxCell>
        <mxCell id="gBuzXzj2Km16ELcQwFcT-113" value="add item" style="ellipse;whiteSpace=wrap;html=1;aspect=fixed;" parent="1" vertex="1">
          <mxGeometry x="355.5" y="540" width="80" height="80" as="geometry" />
        </mxCell>
        <mxCell id="gBuzXzj2Km16ELcQwFcT-114" value="items_data" style="html=1;dashed=0;whiteSpace=wrap;shape=partialRectangle;right=0;left=0;" parent="1" vertex="1">
          <mxGeometry x="515.5" y="550" width="140" height="60" as="geometry" />
        </mxCell>
        <mxCell id="gBuzXzj2Km16ELcQwFcT-125" style="edgeStyle=orthogonalEdgeStyle;rounded=0;orthogonalLoop=1;jettySize=auto;html=1;exitX=1;exitY=0.5;exitDx=0;exitDy=0;entryX=0.25;entryY=1;entryDx=0;entryDy=0;" parent="1" source="gBuzXzj2Km16ELcQwFcT-119" target="gBuzXzj2Km16ELcQwFcT-114" edge="1">
          <mxGeometry relative="1" as="geometry" />
        </mxCell>
        <mxCell id="gBuzXzj2Km16ELcQwFcT-119" value="update" style="ellipse;whiteSpace=wrap;html=1;aspect=fixed;" parent="1" vertex="1">
          <mxGeometry x="355.5" y="630" width="80" height="80" as="geometry" />
        </mxCell>
        <mxCell id="gBuzXzj2Km16ELcQwFcT-122" value="remove item" style="ellipse;whiteSpace=wrap;html=1;aspect=fixed;" parent="1" vertex="1">
          <mxGeometry x="355.5" y="725" width="80" height="80" as="geometry" />
        </mxCell>
        <mxCell id="gBuzXzj2Km16ELcQwFcT-126" style="edgeStyle=orthogonalEdgeStyle;rounded=0;orthogonalLoop=1;jettySize=auto;html=1;exitX=1;exitY=0.5;exitDx=0;exitDy=0;entryX=0.551;entryY=1.022;entryDx=0;entryDy=0;entryPerimeter=0;" parent="1" source="gBuzXzj2Km16ELcQwFcT-122" target="gBuzXzj2Km16ELcQwFcT-114" edge="1">
          <mxGeometry relative="1" as="geometry">
            <mxPoint x="592.5" y="620" as="targetPoint" />
          </mxGeometry>
        </mxCell>
        <mxCell id="gBuzXzj2Km16ELcQwFcT-128" value="" style="endArrow=classic;html=1;rounded=0;entryX=0;entryY=0.5;entryDx=0;entryDy=0;exitX=0.468;exitY=1.018;exitDx=0;exitDy=0;exitPerimeter=0;" parent="1" source="gBuzXzj2Km16ELcQwFcT-107" target="gBuzXzj2Km16ELcQwFcT-119" edge="1">
          <mxGeometry width="50" height="50" relative="1" as="geometry">
            <mxPoint x="212.5" y="580" as="sourcePoint" />
            <mxPoint x="252.5" y="660" as="targetPoint" />
            <Array as="points">
              <mxPoint x="212.5" y="670" />
            </Array>
          </mxGeometry>
        </mxCell>
        <mxCell id="gBuzXzj2Km16ELcQwFcT-132" value="" style="endArrow=classic;html=1;rounded=0;entryX=0.003;entryY=0.466;entryDx=0;entryDy=0;entryPerimeter=0;exitX=0.468;exitY=1;exitDx=0;exitDy=0;exitPerimeter=0;" parent="1" edge="1">
          <mxGeometry width="50" height="50" relative="1" as="geometry">
            <mxPoint x="211.41999999999996" y="490" as="sourcePoint" />
            <mxPoint x="355.5" y="762.2800000000001" as="targetPoint" />
            <Array as="points">
              <mxPoint x="212.26" y="762" />
            </Array>
          </mxGeometry>
        </mxCell>
        <mxCell id="gBuzXzj2Km16ELcQwFcT-133" value="Enter user details" style="text;html=1;align=center;verticalAlign=middle;whiteSpace=wrap;rounded=0;" parent="1" vertex="1">
          <mxGeometry x="275.5" y="430" width="60" height="30" as="geometry" />
        </mxCell>
        <mxCell id="gBuzXzj2Km16ELcQwFcT-134" value="Entering item details" style="text;html=1;align=center;verticalAlign=middle;resizable=0;points=[];autosize=1;strokeColor=none;fillColor=none;" parent="1" vertex="1">
          <mxGeometry x="212.5" y="550" width="130" height="30" as="geometry" />
        </mxCell>
        <mxCell id="gBuzXzj2Km16ELcQwFcT-135" value="Updating item details" style="text;html=1;align=center;verticalAlign=middle;resizable=0;points=[];autosize=1;strokeColor=none;fillColor=none;" parent="1" vertex="1">
          <mxGeometry x="207.5" y="638" width="140" height="30" as="geometry" />
        </mxCell>
        <mxCell id="gBuzXzj2Km16ELcQwFcT-136" value="delete item" style="text;html=1;align=center;verticalAlign=middle;resizable=0;points=[];autosize=1;strokeColor=none;fillColor=none;" parent="1" vertex="1">
          <mxGeometry x="237.5" y="730" width="80" height="30" as="geometry" />
        </mxCell>
        <mxCell id="gBuzXzj2Km16ELcQwFcT-137" value="storing user&amp;nbsp;&lt;div&gt;data&lt;/div&gt;" style="text;html=1;align=center;verticalAlign=middle;resizable=0;points=[];autosize=1;strokeColor=none;fillColor=none;" parent="1" vertex="1">
          <mxGeometry x="425.5" y="425" width="90" height="40" as="geometry" />
        </mxCell>
        <mxCell id="gBuzXzj2Km16ELcQwFcT-138" value="query insert" style="text;html=1;align=center;verticalAlign=middle;resizable=0;points=[];autosize=1;strokeColor=none;fillColor=none;" parent="1" vertex="1">
          <mxGeometry x="425.5" y="550" width="90" height="30" as="geometry" />
        </mxCell>
        <mxCell id="gBuzXzj2Km16ELcQwFcT-139" value="query update" style="text;html=1;align=center;verticalAlign=middle;resizable=0;points=[];autosize=1;strokeColor=none;fillColor=none;" parent="1" vertex="1">
          <mxGeometry x="442.5" y="638" width="90" height="30" as="geometry" />
        </mxCell>
        <mxCell id="gBuzXzj2Km16ELcQwFcT-140" value="query delete" style="text;html=1;align=center;verticalAlign=middle;resizable=0;points=[];autosize=1;strokeColor=none;fillColor=none;" parent="1" vertex="1">
          <mxGeometry x="442.5" y="730" width="90" height="30" as="geometry" />
        </mxCell>
        <mxCell id="gBuzXzj2Km16ELcQwFcT-142" style="edgeStyle=orthogonalEdgeStyle;rounded=0;orthogonalLoop=1;jettySize=auto;html=1;exitX=1;exitY=0.5;exitDx=0;exitDy=0;entryX=0;entryY=0.5;entryDx=0;entryDy=0;" parent="1" source="gBuzXzj2Km16ELcQwFcT-143" target="gBuzXzj2Km16ELcQwFcT-144" edge="1">
          <mxGeometry relative="1" as="geometry" />
        </mxCell>
        <mxCell id="gBuzXzj2Km16ELcQwFcT-143" value="add&amp;nbsp;&lt;div&gt;&lt;span style=&quot;text-wrap-mode: nowrap;&quot;&gt;transaction&lt;/span&gt;&lt;/div&gt;" style="ellipse;whiteSpace=wrap;html=1;aspect=fixed;" parent="1" vertex="1">
          <mxGeometry x="355.5" y="820" width="80" height="80" as="geometry" />
        </mxCell>
        <mxCell id="gBuzXzj2Km16ELcQwFcT-144" value="transaction_data" style="html=1;dashed=0;whiteSpace=wrap;shape=partialRectangle;right=0;left=0;" parent="1" vertex="1">
          <mxGeometry x="520.5" y="830" width="140" height="60" as="geometry" />
        </mxCell>
        <mxCell id="gBuzXzj2Km16ELcQwFcT-145" style="edgeStyle=orthogonalEdgeStyle;rounded=0;orthogonalLoop=1;jettySize=auto;html=1;exitX=1;exitY=0.5;exitDx=0;exitDy=0;entryX=0.25;entryY=1;entryDx=0;entryDy=0;" parent="1" source="gBuzXzj2Km16ELcQwFcT-146" target="gBuzXzj2Km16ELcQwFcT-144" edge="1">
          <mxGeometry relative="1" as="geometry" />
        </mxCell>
        <mxCell id="gBuzXzj2Km16ELcQwFcT-146" value="update&lt;div&gt;&lt;span style=&quot;text-wrap-mode: nowrap;&quot;&gt;transaction&lt;/span&gt;&lt;/div&gt;" style="ellipse;whiteSpace=wrap;html=1;aspect=fixed;" parent="1" vertex="1">
          <mxGeometry x="355.5" y="920" width="80" height="80" as="geometry" />
        </mxCell>
        <mxCell id="gBuzXzj2Km16ELcQwFcT-147" value="remove&amp;nbsp;&lt;div&gt;&lt;span style=&quot;text-wrap-mode: nowrap;&quot;&gt;transaction&lt;/span&gt;&lt;/div&gt;" style="ellipse;whiteSpace=wrap;html=1;aspect=fixed;" parent="1" vertex="1">
          <mxGeometry x="355.5" y="1010" width="80" height="80" as="geometry" />
        </mxCell>
        <mxCell id="gBuzXzj2Km16ELcQwFcT-148" style="edgeStyle=orthogonalEdgeStyle;rounded=0;orthogonalLoop=1;jettySize=auto;html=1;exitX=1;exitY=0.5;exitDx=0;exitDy=0;entryX=0.551;entryY=1.022;entryDx=0;entryDy=0;entryPerimeter=0;" parent="1" source="gBuzXzj2Km16ELcQwFcT-147" target="gBuzXzj2Km16ELcQwFcT-144" edge="1">
          <mxGeometry relative="1" as="geometry">
            <mxPoint x="597.5" y="890" as="targetPoint" />
          </mxGeometry>
        </mxCell>
        <mxCell id="gBuzXzj2Km16ELcQwFcT-149" value="Entering transaction&amp;nbsp;&lt;div&gt;details&lt;/div&gt;" style="text;html=1;align=center;verticalAlign=middle;resizable=0;points=[];autosize=1;strokeColor=none;fillColor=none;" parent="1" vertex="1">
          <mxGeometry x="212.5" y="815" width="130" height="40" as="geometry" />
        </mxCell>
        <mxCell id="gBuzXzj2Km16ELcQwFcT-150" value="Updating transaction&amp;nbsp;&lt;div&gt;details&lt;/div&gt;" style="text;html=1;align=center;verticalAlign=middle;resizable=0;points=[];autosize=1;strokeColor=none;fillColor=none;" parent="1" vertex="1">
          <mxGeometry x="207.5" y="920" width="140" height="40" as="geometry" />
        </mxCell>
        <mxCell id="gBuzXzj2Km16ELcQwFcT-151" value="delete transaction" style="text;html=1;align=center;verticalAlign=middle;resizable=0;points=[];autosize=1;strokeColor=none;fillColor=none;" parent="1" vertex="1">
          <mxGeometry x="217.5" y="1020" width="120" height="30" as="geometry" />
        </mxCell>
        <mxCell id="gBuzXzj2Km16ELcQwFcT-152" value="query insert" style="text;html=1;align=center;verticalAlign=middle;resizable=0;points=[];autosize=1;strokeColor=none;fillColor=none;" parent="1" vertex="1">
          <mxGeometry x="430.5" y="820" width="90" height="30" as="geometry" />
        </mxCell>
        <mxCell id="gBuzXzj2Km16ELcQwFcT-153" value="query update" style="text;html=1;align=center;verticalAlign=middle;resizable=0;points=[];autosize=1;strokeColor=none;fillColor=none;" parent="1" vertex="1">
          <mxGeometry x="447.5" y="930" width="90" height="30" as="geometry" />
        </mxCell>
        <mxCell id="gBuzXzj2Km16ELcQwFcT-154" value="query delete" style="text;html=1;align=center;verticalAlign=middle;resizable=0;points=[];autosize=1;strokeColor=none;fillColor=none;" parent="1" vertex="1">
          <mxGeometry x="447.5" y="1020" width="90" height="30" as="geometry" />
        </mxCell>
        <mxCell id="gBuzXzj2Km16ELcQwFcT-156" value="" style="endArrow=classic;html=1;rounded=0;entryX=0;entryY=0.5;entryDx=0;entryDy=0;" parent="1" target="gBuzXzj2Km16ELcQwFcT-143" edge="1">
          <mxGeometry width="50" height="50" relative="1" as="geometry">
            <mxPoint x="211.5" y="490" as="sourcePoint" />
            <mxPoint x="182.5" y="860" as="targetPoint" />
            <Array as="points">
              <mxPoint x="212.5" y="860" />
            </Array>
          </mxGeometry>
        </mxCell>
        <mxCell id="gBuzXzj2Km16ELcQwFcT-157" value="" style="endArrow=classic;html=1;rounded=0;entryX=0;entryY=0.5;entryDx=0;entryDy=0;" parent="1" target="gBuzXzj2Km16ELcQwFcT-146" edge="1">
          <mxGeometry width="50" height="50" relative="1" as="geometry">
            <mxPoint x="212.5" y="490" as="sourcePoint" />
            <mxPoint x="192.5" y="950" as="targetPoint" />
            <Array as="points">
              <mxPoint x="212.5" y="960" />
            </Array>
          </mxGeometry>
        </mxCell>
        <mxCell id="gBuzXzj2Km16ELcQwFcT-158" value="" style="endArrow=classic;html=1;rounded=0;entryX=0;entryY=0.5;entryDx=0;entryDy=0;" parent="1" target="gBuzXzj2Km16ELcQwFcT-147" edge="1">
          <mxGeometry width="50" height="50" relative="1" as="geometry">
            <mxPoint x="212.5" y="490" as="sourcePoint" />
            <mxPoint x="172.5" y="1020" as="targetPoint" />
            <Array as="points">
              <mxPoint x="212.5" y="1050" />
            </Array>
          </mxGeometry>
        </mxCell>
        <mxCell id="gBuzXzj2Km16ELcQwFcT-159" value="&lt;font style=&quot;font-size: 20px;&quot;&gt;Level - 2 DFD for Transaction management&lt;/font&gt;" style="text;html=1;align=center;verticalAlign=middle;whiteSpace=wrap;rounded=0;" parent="1" vertex="1">
          <mxGeometry x="40" y="1200" width="470" height="30" as="geometry" />
        </mxCell>
        <mxCell id="gBuzXzj2Km16ELcQwFcT-174" style="edgeStyle=orthogonalEdgeStyle;rounded=0;orthogonalLoop=1;jettySize=auto;html=1;exitX=0.5;exitY=1;exitDx=0;exitDy=0;entryX=0.5;entryY=0;entryDx=0;entryDy=0;" parent="1" source="gBuzXzj2Km16ELcQwFcT-160" target="gBuzXzj2Km16ELcQwFcT-173" edge="1">
          <mxGeometry relative="1" as="geometry" />
        </mxCell>
        <mxCell id="gBuzXzj2Km16ELcQwFcT-180" style="edgeStyle=orthogonalEdgeStyle;rounded=0;orthogonalLoop=1;jettySize=auto;html=1;exitX=0;exitY=0.5;exitDx=0;exitDy=0;entryX=0;entryY=0.5;entryDx=0;entryDy=0;" parent="1" source="gBuzXzj2Km16ELcQwFcT-160" target="gBuzXzj2Km16ELcQwFcT-178" edge="1">
          <mxGeometry relative="1" as="geometry" />
        </mxCell>
        <mxCell id="gBuzXzj2Km16ELcQwFcT-160" value="User" style="rounded=0;whiteSpace=wrap;html=1;" parent="1" vertex="1">
          <mxGeometry x="163" y="1280" width="120" height="60" as="geometry" />
        </mxCell>
        <mxCell id="gBuzXzj2Km16ELcQwFcT-166" style="edgeStyle=orthogonalEdgeStyle;rounded=0;orthogonalLoop=1;jettySize=auto;html=1;exitX=0.5;exitY=1;exitDx=0;exitDy=0;entryX=0.5;entryY=0;entryDx=0;entryDy=0;" parent="1" source="gBuzXzj2Km16ELcQwFcT-161" target="gBuzXzj2Km16ELcQwFcT-165" edge="1">
          <mxGeometry relative="1" as="geometry" />
        </mxCell>
        <mxCell id="gBuzXzj2Km16ELcQwFcT-161" value="Prompts user to add new user" style="ellipse;whiteSpace=wrap;html=1;aspect=fixed;" parent="1" vertex="1">
          <mxGeometry x="438" y="1260" width="100" height="100" as="geometry" />
        </mxCell>
        <mxCell id="gBuzXzj2Km16ELcQwFcT-162" value="" style="endArrow=classic;html=1;rounded=0;exitX=1;exitY=0.5;exitDx=0;exitDy=0;entryX=0;entryY=0.5;entryDx=0;entryDy=0;" parent="1" source="gBuzXzj2Km16ELcQwFcT-160" target="gBuzXzj2Km16ELcQwFcT-161" edge="1">
          <mxGeometry width="50" height="50" relative="1" as="geometry">
            <mxPoint x="280" y="1530" as="sourcePoint" />
            <mxPoint x="330" y="1480" as="targetPoint" />
          </mxGeometry>
        </mxCell>
        <mxCell id="gBuzXzj2Km16ELcQwFcT-163" value="clicks on add transaction button" style="text;html=1;align=center;verticalAlign=middle;whiteSpace=wrap;rounded=0;" parent="1" vertex="1">
          <mxGeometry x="310" y="1280" width="107" height="30" as="geometry" />
        </mxCell>
        <mxCell id="gBuzXzj2Km16ELcQwFcT-169" style="edgeStyle=orthogonalEdgeStyle;rounded=0;orthogonalLoop=1;jettySize=auto;html=1;exitX=0.5;exitY=1;exitDx=0;exitDy=0;entryX=0.5;entryY=0;entryDx=0;entryDy=0;" parent="1" source="gBuzXzj2Km16ELcQwFcT-165" target="gBuzXzj2Km16ELcQwFcT-168" edge="1">
          <mxGeometry relative="1" as="geometry" />
        </mxCell>
        <mxCell id="gBuzXzj2Km16ELcQwFcT-165" value="record_user" style="html=1;dashed=0;whiteSpace=wrap;shape=partialRectangle;right=0;left=0;" parent="1" vertex="1">
          <mxGeometry x="418" y="1430" width="140" height="60" as="geometry" />
        </mxCell>
        <mxCell id="gBuzXzj2Km16ELcQwFcT-167" value="stores user data" style="text;html=1;align=center;verticalAlign=middle;resizable=0;points=[];autosize=1;strokeColor=none;fillColor=none;" parent="1" vertex="1">
          <mxGeometry x="485" y="1378" width="110" height="30" as="geometry" />
        </mxCell>
        <mxCell id="gBuzXzj2Km16ELcQwFcT-179" style="edgeStyle=orthogonalEdgeStyle;rounded=0;orthogonalLoop=1;jettySize=auto;html=1;exitX=1;exitY=0.5;exitDx=0;exitDy=0;entryX=1;entryY=0.5;entryDx=0;entryDy=0;" parent="1" source="gBuzXzj2Km16ELcQwFcT-168" target="gBuzXzj2Km16ELcQwFcT-165" edge="1">
          <mxGeometry relative="1" as="geometry">
            <mxPoint x="680" y="1420" as="targetPoint" />
            <Array as="points">
              <mxPoint x="680" y="1590" />
              <mxPoint x="680" y="1460" />
            </Array>
          </mxGeometry>
        </mxCell>
        <mxCell id="gBuzXzj2Km16ELcQwFcT-168" value="Prompts user to create transaction" style="ellipse;whiteSpace=wrap;html=1;aspect=fixed;" parent="1" vertex="1">
          <mxGeometry x="448" y="1550" width="80" height="80" as="geometry" />
        </mxCell>
        <mxCell id="gBuzXzj2Km16ELcQwFcT-170" value="creates lender or&amp;nbsp;&lt;div&gt;borrower transactions&amp;nbsp;&lt;/div&gt;" style="text;html=1;align=center;verticalAlign=middle;resizable=0;points=[];autosize=1;strokeColor=none;fillColor=none;" parent="1" vertex="1">
          <mxGeometry x="490" y="1493" width="140" height="40" as="geometry" />
        </mxCell>
        <mxCell id="gBuzXzj2Km16ELcQwFcT-172" value="stores that new&amp;nbsp;&lt;div&gt;transaction&lt;/div&gt;" style="text;html=1;align=center;verticalAlign=middle;resizable=0;points=[];autosize=1;strokeColor=none;fillColor=none;" parent="1" vertex="1">
          <mxGeometry x="610" y="1420" width="110" height="40" as="geometry" />
        </mxCell>
        <mxCell id="gBuzXzj2Km16ELcQwFcT-173" value="prompts user to update transaction" style="ellipse;whiteSpace=wrap;html=1;aspect=fixed;" parent="1" vertex="1">
          <mxGeometry x="183" y="1410" width="80" height="80" as="geometry" />
        </mxCell>
        <mxCell id="gBuzXzj2Km16ELcQwFcT-175" style="edgeStyle=orthogonalEdgeStyle;rounded=0;orthogonalLoop=1;jettySize=auto;html=1;exitX=1;exitY=0.5;exitDx=0;exitDy=0;entryX=0.195;entryY=-0.014;entryDx=0;entryDy=0;entryPerimeter=0;" parent="1" source="gBuzXzj2Km16ELcQwFcT-173" target="gBuzXzj2Km16ELcQwFcT-165" edge="1">
          <mxGeometry relative="1" as="geometry" />
        </mxCell>
        <mxCell id="gBuzXzj2Km16ELcQwFcT-176" value="Updates transaction data" style="text;html=1;align=center;verticalAlign=middle;whiteSpace=wrap;rounded=0;" parent="1" vertex="1">
          <mxGeometry x="225" y="1360" width="60" height="30" as="geometry" />
        </mxCell>
        <mxCell id="gBuzXzj2Km16ELcQwFcT-177" value="updates&amp;nbsp;&lt;div&gt;transactions&amp;nbsp;&lt;span style=&quot;background-color: transparent; color: light-dark(rgb(0, 0, 0), rgb(255, 255, 255));&quot;&gt;data&lt;/span&gt;&lt;/div&gt;" style="text;html=1;align=center;verticalAlign=middle;resizable=0;points=[];autosize=1;strokeColor=none;fillColor=none;" parent="1" vertex="1">
          <mxGeometry x="328" y="1373" width="110" height="40" as="geometry" />
        </mxCell>
        <mxCell id="gBuzXzj2Km16ELcQwFcT-181" style="edgeStyle=orthogonalEdgeStyle;rounded=0;orthogonalLoop=1;jettySize=auto;html=1;exitX=1;exitY=0.5;exitDx=0;exitDy=0;entryX=0;entryY=0.5;entryDx=0;entryDy=0;" parent="1" source="gBuzXzj2Km16ELcQwFcT-178" target="gBuzXzj2Km16ELcQwFcT-165" edge="1">
          <mxGeometry relative="1" as="geometry">
            <Array as="points">
              <mxPoint x="380" y="1590" />
              <mxPoint x="380" y="1460" />
            </Array>
          </mxGeometry>
        </mxCell>
        <mxCell id="gBuzXzj2Km16ELcQwFcT-178" value="prompts user&lt;div&gt;to delete&lt;/div&gt;&lt;div&gt;transaction&amp;nbsp;&lt;/div&gt;" style="ellipse;whiteSpace=wrap;html=1;aspect=fixed;" parent="1" vertex="1">
          <mxGeometry x="183" y="1550" width="80" height="80" as="geometry" />
        </mxCell>
        <mxCell id="gBuzXzj2Km16ELcQwFcT-182" value="delete&lt;div&gt;transaction&lt;/div&gt;" style="text;html=1;align=center;verticalAlign=middle;resizable=0;points=[];autosize=1;strokeColor=none;fillColor=none;" parent="1" vertex="1">
          <mxGeometry x="70" y="1433" width="80" height="40" as="geometry" />
        </mxCell>
        <mxCell id="gBuzXzj2Km16ELcQwFcT-183" value="deleting&amp;nbsp;&lt;div&gt;transaction&amp;nbsp;&lt;span style=&quot;background-color: transparent; color: light-dark(rgb(0, 0, 0), rgb(255, 255, 255));&quot;&gt;data&lt;/span&gt;&lt;/div&gt;" style="text;html=1;align=center;verticalAlign=middle;resizable=0;points=[];autosize=1;strokeColor=none;fillColor=none;" parent="1" vertex="1">
          <mxGeometry x="273" y="1550" width="110" height="40" as="geometry" />
        </mxCell>
        <mxCell id="gBuzXzj2Km16ELcQwFcT-184" value="&lt;font style=&quot;font-size: 20px;&quot;&gt;Level - 2 DFD for Item management&lt;/font&gt;" style="text;html=1;align=center;verticalAlign=middle;whiteSpace=wrap;rounded=0;" parent="1" vertex="1">
          <mxGeometry x="50" y="1650" width="470" height="30" as="geometry" />
        </mxCell>
        <mxCell id="gBuzXzj2Km16ELcQwFcT-185" style="edgeStyle=orthogonalEdgeStyle;rounded=0;orthogonalLoop=1;jettySize=auto;html=1;exitX=0.5;exitY=1;exitDx=0;exitDy=0;entryX=0.5;entryY=0;entryDx=0;entryDy=0;" parent="1" source="gBuzXzj2Km16ELcQwFcT-187" target="gBuzXzj2Km16ELcQwFcT-199" edge="1">
          <mxGeometry relative="1" as="geometry" />
        </mxCell>
        <mxCell id="gBuzXzj2Km16ELcQwFcT-186" style="edgeStyle=orthogonalEdgeStyle;rounded=0;orthogonalLoop=1;jettySize=auto;html=1;exitX=0;exitY=0.5;exitDx=0;exitDy=0;entryX=0;entryY=0.5;entryDx=0;entryDy=0;" parent="1" source="gBuzXzj2Km16ELcQwFcT-187" target="gBuzXzj2Km16ELcQwFcT-204" edge="1">
          <mxGeometry relative="1" as="geometry" />
        </mxCell>
        <mxCell id="gBuzXzj2Km16ELcQwFcT-187" value="User" style="rounded=0;whiteSpace=wrap;html=1;" parent="1" vertex="1">
          <mxGeometry x="163" y="1750" width="120" height="60" as="geometry" />
        </mxCell>
        <mxCell id="gBuzXzj2Km16ELcQwFcT-188" style="edgeStyle=orthogonalEdgeStyle;rounded=0;orthogonalLoop=1;jettySize=auto;html=1;exitX=0.5;exitY=1;exitDx=0;exitDy=0;entryX=0.5;entryY=0;entryDx=0;entryDy=0;" parent="1" source="gBuzXzj2Km16ELcQwFcT-189" target="gBuzXzj2Km16ELcQwFcT-193" edge="1">
          <mxGeometry relative="1" as="geometry" />
        </mxCell>
        <mxCell id="gBuzXzj2Km16ELcQwFcT-189" value="Prompts user to add item" style="ellipse;whiteSpace=wrap;html=1;aspect=fixed;" parent="1" vertex="1">
          <mxGeometry x="438" y="1730" width="100" height="100" as="geometry" />
        </mxCell>
        <mxCell id="gBuzXzj2Km16ELcQwFcT-190" value="" style="endArrow=classic;html=1;rounded=0;exitX=1;exitY=0.5;exitDx=0;exitDy=0;entryX=0;entryY=0.5;entryDx=0;entryDy=0;" parent="1" source="gBuzXzj2Km16ELcQwFcT-187" target="gBuzXzj2Km16ELcQwFcT-189" edge="1">
          <mxGeometry width="50" height="50" relative="1" as="geometry">
            <mxPoint x="280" y="2000" as="sourcePoint" />
            <mxPoint x="330" y="1950" as="targetPoint" />
          </mxGeometry>
        </mxCell>
        <mxCell id="gBuzXzj2Km16ELcQwFcT-191" value="clicks on add&amp;nbsp;&lt;div&gt;Item button&lt;/div&gt;" style="text;html=1;align=center;verticalAlign=middle;whiteSpace=wrap;rounded=0;" parent="1" vertex="1">
          <mxGeometry x="310" y="1750" width="107" height="30" as="geometry" />
        </mxCell>
        <mxCell id="gBuzXzj2Km16ELcQwFcT-193" value="items_data" style="html=1;dashed=0;whiteSpace=wrap;shape=partialRectangle;right=0;left=0;" parent="1" vertex="1">
          <mxGeometry x="418" y="1900" width="140" height="60" as="geometry" />
        </mxCell>
        <mxCell id="gBuzXzj2Km16ELcQwFcT-194" value="stores item&amp;nbsp;&lt;div&gt;details&lt;/div&gt;" style="text;html=1;align=center;verticalAlign=middle;resizable=0;points=[];autosize=1;strokeColor=none;fillColor=none;" parent="1" vertex="1">
          <mxGeometry x="495" y="1840" width="90" height="40" as="geometry" />
        </mxCell>
        <mxCell id="gBuzXzj2Km16ELcQwFcT-199" value="prompts user to update item" style="ellipse;whiteSpace=wrap;html=1;aspect=fixed;" parent="1" vertex="1">
          <mxGeometry x="183" y="1880" width="80" height="80" as="geometry" />
        </mxCell>
        <mxCell id="gBuzXzj2Km16ELcQwFcT-200" style="edgeStyle=orthogonalEdgeStyle;rounded=0;orthogonalLoop=1;jettySize=auto;html=1;exitX=1;exitY=0.5;exitDx=0;exitDy=0;entryX=0.195;entryY=-0.014;entryDx=0;entryDy=0;entryPerimeter=0;" parent="1" source="gBuzXzj2Km16ELcQwFcT-199" target="gBuzXzj2Km16ELcQwFcT-193" edge="1">
          <mxGeometry relative="1" as="geometry" />
        </mxCell>
        <mxCell id="gBuzXzj2Km16ELcQwFcT-201" value="Updates Item data" style="text;html=1;align=center;verticalAlign=middle;whiteSpace=wrap;rounded=0;" parent="1" vertex="1">
          <mxGeometry x="225" y="1830" width="60" height="30" as="geometry" />
        </mxCell>
        <mxCell id="gBuzXzj2Km16ELcQwFcT-202" value="Updates&amp;nbsp;&lt;div&gt;&lt;span style=&quot;background-color: transparent; color: light-dark(rgb(0, 0, 0), rgb(255, 255, 255));&quot;&gt;item data&lt;/span&gt;&lt;/div&gt;" style="text;html=1;align=center;verticalAlign=middle;resizable=0;points=[];autosize=1;strokeColor=none;fillColor=none;" parent="1" vertex="1">
          <mxGeometry x="348" y="1843" width="70" height="40" as="geometry" />
        </mxCell>
        <mxCell id="gBuzXzj2Km16ELcQwFcT-203" style="edgeStyle=orthogonalEdgeStyle;rounded=0;orthogonalLoop=1;jettySize=auto;html=1;exitX=1;exitY=0.5;exitDx=0;exitDy=0;entryX=0;entryY=0.5;entryDx=0;entryDy=0;" parent="1" source="gBuzXzj2Km16ELcQwFcT-204" target="gBuzXzj2Km16ELcQwFcT-193" edge="1">
          <mxGeometry relative="1" as="geometry">
            <Array as="points">
              <mxPoint x="380" y="2060" />
              <mxPoint x="380" y="1930" />
            </Array>
          </mxGeometry>
        </mxCell>
        <mxCell id="gBuzXzj2Km16ELcQwFcT-204" value="prompts user&lt;div&gt;to delete&lt;/div&gt;&lt;div&gt;item&amp;nbsp;&lt;/div&gt;" style="ellipse;whiteSpace=wrap;html=1;aspect=fixed;" parent="1" vertex="1">
          <mxGeometry x="183" y="2020" width="80" height="80" as="geometry" />
        </mxCell>
        <mxCell id="gBuzXzj2Km16ELcQwFcT-205" value="delete&lt;div&gt;Item&lt;/div&gt;" style="text;html=1;align=center;verticalAlign=middle;resizable=0;points=[];autosize=1;strokeColor=none;fillColor=none;" parent="1" vertex="1">
          <mxGeometry x="80" y="1903" width="60" height="40" as="geometry" />
        </mxCell>
        <mxCell id="gBuzXzj2Km16ELcQwFcT-206" value="deleting&amp;nbsp;&lt;div&gt;&lt;span style=&quot;background-color: transparent; color: light-dark(rgb(0, 0, 0), rgb(255, 255, 255));&quot;&gt;item data&lt;/span&gt;&lt;/div&gt;" style="text;html=1;align=center;verticalAlign=middle;resizable=0;points=[];autosize=1;strokeColor=none;fillColor=none;" parent="1" vertex="1">
          <mxGeometry x="293" y="2020" width="70" height="40" as="geometry" />
        </mxCell>
        <mxCell id="OkTDxyFa1funlo1SMz6G-7" style="edgeStyle=orthogonalEdgeStyle;rounded=0;orthogonalLoop=1;jettySize=auto;html=1;exitX=1;exitY=0.5;exitDx=0;exitDy=0;entryX=0;entryY=0.5;entryDx=0;entryDy=0;" edge="1" parent="1" source="OkTDxyFa1funlo1SMz6G-1" target="gBuzXzj2Km16ELcQwFcT-99">
          <mxGeometry relative="1" as="geometry" />
        </mxCell>
        <mxCell id="OkTDxyFa1funlo1SMz6G-1" value="register user" style="ellipse;whiteSpace=wrap;html=1;aspect=fixed;" vertex="1" parent="1">
          <mxGeometry x="227.5" y="70" width="80" height="80" as="geometry" />
        </mxCell>
        <mxCell id="OkTDxyFa1funlo1SMz6G-9" style="edgeStyle=orthogonalEdgeStyle;rounded=0;orthogonalLoop=1;jettySize=auto;html=1;exitX=0.5;exitY=0;exitDx=0;exitDy=0;entryX=0.5;entryY=1;entryDx=0;entryDy=0;" edge="1" parent="1" source="OkTDxyFa1funlo1SMz6G-2" target="gBuzXzj2Km16ELcQwFcT-99">
          <mxGeometry relative="1" as="geometry" />
        </mxCell>
        <mxCell id="OkTDxyFa1funlo1SMz6G-2" value="manages&lt;br&gt;&lt;div&gt;items&lt;/div&gt;" style="ellipse;whiteSpace=wrap;html=1;aspect=fixed;" vertex="1" parent="1">
          <mxGeometry x="390" y="160" width="80" height="80" as="geometry" />
        </mxCell>
        <mxCell id="OkTDxyFa1funlo1SMz6G-11" style="edgeStyle=orthogonalEdgeStyle;rounded=0;orthogonalLoop=1;jettySize=auto;html=1;exitX=0;exitY=0.5;exitDx=0;exitDy=0;entryX=1;entryY=0.5;entryDx=0;entryDy=0;" edge="1" parent="1" source="OkTDxyFa1funlo1SMz6G-5" target="gBuzXzj2Km16ELcQwFcT-99">
          <mxGeometry relative="1" as="geometry" />
        </mxCell>
        <mxCell id="OkTDxyFa1funlo1SMz6G-5" value="manage&lt;div&gt;transactions&lt;/div&gt;" style="ellipse;whiteSpace=wrap;html=1;aspect=fixed;" vertex="1" parent="1">
          <mxGeometry x="548" y="70" width="80" height="80" as="geometry" />
        </mxCell>
      </root>
    </mxGraphModel>
  </diagram>
</mxfile>
